#!OML:ASF H:\Pregnant\Project 1\Capture day 1\Session 1\femalepreg.ASF
:FULLY-SPECIFIED
:DEGREES
358
root 3.59342 16.0704 11.1656 22.0716 -11.7271 0.0235775
lowerback -15.9372 -1.40367 -2.59774
upperback -7.16476 -1.5777 1.66271
thorax 1.43427 -0.73553 2.94746
lowerneck -21.3338 -4.28718 -2.15656
upperneck 22.826 -6.08243 2.72488
head 11.076 -2.6145 0.391398
rclavicle -2.48326e-015 -3.18055e-015
rhumerus -38.7162 28.5819 -93.2487
rradius 45.5177
rwrist -9.01399
rhand -13.5565 -13.3827
rfingers 7.12502
rthumb 12.5567 -42.9854
lclavicle -2.48326e-015 -3.18055e-015
lhumerus -40.9334 -10.6831 86.1109
lradius 49.5207
lwrist 38.0292
lhand -24.4085 -2.07801
lfingers 7.12502
lthumb 2.08287 27.8916
rfemur -35.5329 19.7218 6.56918
rtibia 29.4941
rfoot -9.17846 -23.6778
rtoes -16.4591
lfemur -15.6719 -4.92406 -16.2445
ltibia 3.89618e-014
lfoot -1.32161 19.6203
ltoes -5.18107
359
root 3.59199 16.0692 11.1913 21.9478 -11.7529 -0.00388089
lowerback -16.0756 -1.37491 -2.51491
upperback -7.1688 -1.54913 1.671
thorax 1.49931 -0.723684 2.91211
lowerneck -21.3312 -4.22068 -2.05224
upperneck 22.9938 -5.98896 2.56695
head 11.1262 -2.58129 0.330864
rclavicle -2.10191e-014 -1.90833e-014
rhumerus -38.4559 27.8011 -92.9766
rradius 44.8402
rwrist -8.60957
rhand -13.3886 -13.1755
rfingers 7.12502
rthumb 12.7186 -42.7681
lclavicle -2.10191e-014 -1.90833e-014
lhumerus -40.8656 -10.6259 86.2832
lradius 48.7841
lwrist 38.0545
lhand -24.1777 -2.00317
lfingers 7.12502
lthumb 2.30576 27.9641
rfemur -35.2208 19.9422 6.60946
rtibia 29.3682
rfoot -9.24646 -23.8508
rtoes -16.3996
lfemur -15.3784 -4.90508 -16.2606
ltibia 7.95139e-015
lfoot -1.60507 19.626
ltoes -4.66795
360
root 3.59085 16.0675 11.2171 21.8254 -11.7791 -0.0352299
lowerback -16.215 -1.34633 -2.4259
upperback -7.173 -1.52204 1.68057
thorax 1.56478 -0.712651 2.87443
lowerneck -21.324 -4.1509 -1.99611
upperneck 23.1646 -5.89149 2.4706
head 11.1808 -2.5427 0.301117
rclavicle 1.99548e-014 7.15625e-015
rhumerus -38.1992 26.9994 -92.6971
rradius 44.1112
rwrist -8.22199
rhand -13.3024 -12.98
rfingers 7.12502
rthumb 12.8016 -42.5675
lclavicle 1.99548e-014 7.15625e-015
lhumerus -40.8096 -10.5729 86.4627
lradius 48.0051
lwrist 38.0824
lhand -23.9899 -1.89739
lfingers 7.12502
lthumb 2.48714 28.0679
rfemur -34.9081 20.135 6.66419
rtibia 29.2465
rfoot -9.32104 -23.9983
rtoes -16.3608
lfemur -15.0817 -4.88445 -16.2739
ltibia 3.02153e-014
lfoot -1.90624 19.6297
ltoes -4.09645
361
root 3.58985 16.0654 11.243 21.6996 -11.8012 -0.0689112
lowerback -16.3553 -1.32156 -2.334
upperback -7.17378 -1.50074 1.69269
thorax 1.63467 -0.704578 2.83683
lowerneck -21.3078 -4.07691 -1.98314
upperneck 23.332 -5.78883 2.43046
head 11.2361 -2.49858 0.299862
rclavicle 1.89777e-014 -1.0138e-014
rhumerus -37.9402 26.1826 -92.4107
rradius 43.3349
rwrist -7.8674
rhand -13.291 -12.8386
rfingers 7.12502
rthumb 12.8127 -42.4254
lclavicle 1.89777e-014 -1.0138e-014
lhumerus -40.762 -10.522 86.6486
lradius 47.1847
lwrist 38.1138
lhand -23.8571 -1.79025
lfingers 7.12502
lthumb 2.61534 28.1735
rfemur -34.5903 20.3071 6.73257
rtibia 29.1317
rfoot -9.40197 -24.1307
rtoes -16.3389
lfemur -14.7792 -4.86688 -16.2839
ltibia 3.89618e-014
lfoot -2.21858 19.6316
ltoes -3.48636
362
root 3.58891 16.0628 11.269 21.5667 -11.8221 -0.102157
lowerback -16.4893 -1.30152 -2.24482
upperback -7.17355 -1.48584 1.70847
thorax 1.70293 -0.699538 2.80366
lowerneck -21.2832 -3.99893 -2.00237
upperneck 23.5004 -5.6801 2.42782
head 11.2927 -2.44997 0.318717
rclavicle -4.27853e-015 -5.96354e-016
rhumerus -37.6827 25.3489 -92.1155
rradius 42.5137
rwrist -7.54133
rhand -13.3518 -12.7394
rfingers 7.12502
rthumb 12.754 -42.3299
lclavicle -4.27853e-015 -5.96354e-016
lhumerus -40.7329 -10.4703 86.8427
lradius 46.3361
lwrist 38.1473
lhand -23.771 -1.63405
lfingers 7.12502
lthumb 2.69854 28.3286
rfemur -34.2661 20.4723 6.80779
rtibia 29.0261
rfoot -9.49305 -24.2585
rtoes -16.3281
lfemur -14.4678 -4.85113 -16.2948
ltibia -2.38542e-014
lfoot -2.53865 19.6315
ltoes -2.85793
363
root 3.58791 16.0597 11.2949 21.4207 -11.8423 -0.132815
lowerback -16.6084 -1.28471 -2.15847
upperback -7.16922 -1.47525 1.72326
thorax 1.76793 -0.696555 2.77049
lowerneck -21.2454 -3.92208 -2.00157
upperneck 23.6548 -5.57313 2.40361
head 11.3402 -2.40361 0.326556
rclavicle -6.84875e-015 -1.98785e-014
rhumerus -37.4209 24.5035 -91.8176
rradius 41.6487
rwrist -7.26673
rhand -13.4978 -12.7112
rfingers 7.12502
rthumb 12.6133 -42.3104
lclavicle -6.84875e-015 -1.98785e-014
lhumerus -40.7192 -10.4218 87.0387
lradius 45.4652
lwrist 38.1789
lhand -23.7176 -1.43356
lfingers 7.12502
lthumb 2.75013 28.5285
rfemur -33.9336 20.6501 6.88339
rtibia 28.9337
rfoot -9.59527 -24.398
rtoes -16.3097
lfemur -14.143 -4.83775 -16.3089
ltibia 1.74931e-014
lfoot -2.85522 19.6289
ltoes -2.25484
364
root 3.58686 16.0562 11.3208 21.2658 -11.8624 -0.162043
lowerback -16.7167 -1.27103 -2.0752
upperback -7.15726 -1.46871 1.73825
thorax 1.83571 -0.695577 2.73864
lowerneck -21.2159 -3.84643 -1.99684
upperneck 23.8043 -5.46791 2.37695
head 11.3873 -2.35802 0.332504
rclavicle 5.02863e-015 1.98785e-014
rhumerus -37.1407 23.6349 -91.5055
rradius 40.7388
rwrist -7.01913
rhand -13.6856 -12.7494
rfingers 7.12502
rthumb 12.4323 -42.3596
lclavicle 5.02863e-015 1.98785e-014
lhumerus -40.7114 -10.3767 87.2364
lradius 44.5779
lwrist 38.2121
lhand -23.6975 -1.16363
lfingers 7.12502
lthumb 2.7695 28.7981
rfemur -33.6001 20.8486 6.95569
rtibia 28.8573
rfoot -9.7061 -24.5571
rtoes -16.2808
lfemur -13.8107 -4.82531 -16.3246
ltibia 2.22639e-014
lfoot -3.1627 19.624
ltoes -1.69259
365
root 3.58578 16.0523 11.3465 21.0969 -11.8876 -0.183674
lowerback -16.8012 -1.25756 -1.99906
upperback -7.14133 -1.46176 1.74879
thorax 1.89527 -0.694198 2.70652
lowerneck -21.1827 -3.77513 -1.93792
upperneck 23.9374 -5.36861 2.28744
head 11.424 -2.31865 0.305748
rclavicle 3.03395e-014 -3.18055e-015
rhumerus -36.8482 22.7509 -91.1875
rradius 39.7712
rwrist -6.80603
rhand -13.9632 -12.7887
rfingers 7.12502
rthumb 12.1646 -42.4151
lclavicle 3.03395e-014 -3.18055e-015
lhumerus -40.7157 -10.3343 87.4332
lradius 43.6794
lwrist 38.2438
lhand -23.6955 -0.899514
lfingers 7.12502
lthumb 2.77142 29.0622
rfemur -33.2633 21.0648 7.01981
rtibia 28.7988
rfoot -9.82821 -24.7285
rtoes -16.2461
lfemur -13.4657 -4.81166 -16.3509
ltibia -5.56597e-014
lfoot -3.46182 19.6155
ltoes -1.17271
366
root 3.58483 16.0481 11.3721 20.9243 -11.9196 -0.198
lowerback -16.8766 -1.24463 -1.92909
upperback -7.12241 -1.4547 1.75455
thorax 1.95315 -0.692676 2.67299
lowerneck -21.1688 -3.70341 -1.89546
upperneck 24.0802 -5.27207 2.23004
head 11.4701 -2.27751 0.292573
rclavicle -1.86671e-014 -1.19271e-014
rhumerus -36.541 21.8398 -90.8583
rradius 38.7479
rwrist -6.59519
rhand -14.2861 -12.8522
rfingers 7.12502
rthumb 11.8532 -42.4967
lclavicle -1.86671e-014 -1.19271e-014
lhumerus -40.7307 -10.2941 87.6278
lradius 42.7678
lwrist 38.2725
lhand -23.6979 -0.637198
lfingers 7.12502
lthumb 2.7691 29.3246
rfemur -32.935 21.2835 7.07545
rtibia 28.7589
rfoot -9.95859 -24.8986
rtoes -16.2091
lfemur -13.1185 -4.79471 -16.3878
ltibia -4.13472e-014
lfoot -3.74761 19.6034
ltoes -0.708543
367
root 3.584 16.0437 11.3975 20.7541 -11.9575 -0.203799
lowerback -16.9462 -1.23211 -1.86613
upperback -7.10317 -1.4471 1.75436
thorax 2.00836 -0.690778 2.63735
lowerneck -21.1591 -3.63261 -1.8357
upperneck 24.2159 -5.18051 2.16665
head 11.5138 -2.23786 0.273501
rclavicle 3.20043e-014 -7.95139e-015
rhumerus -36.2234 20.9101 -90.5239
rradius 37.6658
rwrist -6.39894
rhand -14.6757 -12.9003
rfingers 7.12502
rthumb 11.4775 -42.5661
lclavicle 3.20043e-014 -7.95139e-015
lhumerus -40.7553 -10.2559 87.8185
lradius 41.8438
lwrist 38.2994
lhand -23.7048 -0.418625
lfingers 7.12502
lthumb 2.76242 29.5432
rfemur -32.6229 21.4916 7.12241
rtibia 28.7376
rfoot -10.0935 -25.0567
rtoes -16.1851
lfemur -12.7781 -4.77501 -16.4349
ltibia 5.88403e-014
lfoot -4.01716 19.5876
ltoes -0.289711
368
root 3.58333 16.0393 11.4224 20.5912 -12.0024 -0.198998
lowerback -17.0155 -1.22008 -1.81269
upperback -7.08653 -1.43859 1.74807
thorax 2.06063 -0.68826 2.60089
lowerneck -21.1514 -3.56249 -1.78667
upperneck 24.3517 -5.09366 2.12975
head 11.5595 -2.19783 0.265122
rclavicle -1.84932e-014 7.55382e-015
rhumerus -35.8969 19.9496 -90.1779
rradius 36.5292
rwrist -6.18761
rhand -15.1216 -12.9273
rfingers 7.12502
rthumb 11.0475 -42.6165
lclavicle -1.84932e-014 7.55382e-015
lhumerus -40.793 -10.2153 88.0042
lradius 40.9124
lwrist 38.3166
lhand -23.7052 -0.199069
lfingers 7.12502
lthumb 2.7621 29.7628
rfemur -32.3328 21.6735 7.15954
rtibia 28.7327
rfoot -10.2289 -25.1876
rtoes -16.1832
lfemur -12.4517 -4.75206 -16.4947
ltibia -6.99722e-014
lfoot -4.26949 19.5678
ltoes 0.0799094
369
root 3.58269 16.0349 11.447 20.438 -12.0487 -0.18185
lowerback -17.0874 -1.21037 -1.77144
upperback -7.07317 -1.43107 1.73529
thorax 2.11089 -0.686047 2.56433
lowerneck -21.1308 -3.49527 -1.71561
upperneck 24.471 -5.01392 2.07904
head 11.5956 -2.16113 0.247185
rclavicle -2.12451e-015 1.19271e-015
rhumerus -35.5625 18.9644 -89.8234
rradius 35.3445
rwrist -5.97875
rhand -15.6048 -12.9427
rfingers 7.12502
rthumb 10.5814 -42.6563
lclavicle -2.12451e-015 1.19271e-015
lhumerus -40.8398 -10.1683 88.1799
lradius 39.9721
lwrist 38.3235
lhand -23.6882 -0.0257744
lfingers 7.12502
lthumb 2.7785 29.9359
rfemur -32.0641 21.8257 7.18627
rtibia 28.7403
rfoot -10.3599 -25.2952
rtoes -16.2125
lfemur -12.1459 -4.73132 -16.5662
ltibia 2.54444e-014
lfoot -4.49291 19.5468
ltoes 0.376181
370
root 3.58203 16.0307 11.4711 20.2988 -12.0947 -0.15406
lowerback -17.1668 -1.20292 -1.74148
upperback -7.06711 -1.42452 1.71662
thorax 2.15742 -0.684103 2.52777
lowerneck -21.0965 -3.43093 -1.64793
upperneck 24.5865 -4.94175 2.04447
head 11.6286 -2.12623 0.234751
rclavicle -5.23052e-015 7.15625e-015
rhumerus -35.2293 17.9302 -89.4486
rradius 34.1262
rwrist -5.72379
rhand -16.0587 -12.9879
rfingers 7.12502
rthumb 10.1435 -42.7234
lclavicle -5.23052e-015 7.15625e-015
lhumerus -40.9025 -10.1188 88.3469
lradius 39.0293
lwrist 38.3143
lhand -23.6628 0.155311
lfingers 7.12502
lthumb 2.80301 30.1166
rfemur -31.8188 21.9458 7.20281
rtibia 28.7553
rfoot -10.4845 -25.3764
rtoes -16.2684
lfemur -11.8671 -4.71364 -16.6472
ltibia 7.95139e-015
lfoot -4.68363 19.5262
ltoes 0.588976
371
root 3.58131 16.0268 11.4948 20.1759 -12.1377 -0.121188
lowerback -17.2545 -1.19751 -1.71802
upperback -7.06717 -1.41946 1.69459
thorax 2.20191 -0.682763 2.49103
lowerneck -21.0483 -3.37237 -1.56478
upperneck 24.6917 -4.87953 1.99856
head 11.6544 -2.09611 0.214216
rclavicle -1.6524e-015 -6.75868e-015
rhumerus -34.896 16.8575 -89.0536
rradius 32.8804
rwrist -5.44004
rhand -16.4903 -13.0651
rfingers 7.12502
rthumb 9.72712 -42.8205
lclavicle -1.6524e-015 -6.75868e-015
lhumerus -40.9763 -10.0598 88.5015
lradius 38.0825
lwrist 38.2811
lhand -23.6193 0.279438
lfingers 7.12502
lthumb 2.84507 30.2402
rfemur -31.5952 22.0359 7.21422
rtibia 28.7718
rfoot -10.6026 -25.4324
rtoes -16.3402
lfemur -11.6175 -4.69944 -16.7312
ltibia -6.36111e-015
lfoot -4.83593 19.5081
ltoes 0.702396
372
root 3.58052 16.0235 11.5179 20.0757 -12.1768 -0.0887849
lowerback -17.3538 -1.19523 -1.69979
upperback -7.07368 -1.41773 1.67516
thorax 2.24599 -0.68292 2.4593
lowerneck -21.0045 -3.31857 -1.50468
upperneck 24.8013 -4.82446 1.98118
head 11.6846 -2.06749 0.206754
rclavicle 7.01958e-015 -2.46493e-014
rhumerus -34.5635 15.7361 -88.6251
rradius 31.6247
rwrist -5.10115
rhand -16.8485 -13.2133
rfingers 7.12502
rthumb 9.38152 -42.9845
lclavicle 7.01958e-015 -2.46493e-014
lhumerus -41.0565 -9.98694 88.6468
lradius 37.1342
lwrist 38.2186
lhand -23.5586 0.413951
lfingers 7.12502
lthumb 2.90361 30.3739
rfemur -31.3996 22.1048 7.22111
rtibia 28.7857
rfoot -10.705 -25.4706
rtoes -16.4218
lfemur -11.4046 -4.68736 -16.8116
ltibia 9.54166e-015
lfoot -4.94623 19.4951
ltoes 0.715203
